PathFileType	4	(X/Y/Z)	2014001\dynamic\2014001_C1_03.trc
DataRate	CameraRate	NumFrames	NumMarkers	Units	OrigDataRate	OrigDataStartFrame	OrigNumFrames
100.000000	100.000000	4	52	mm	100.000000	183	490
Frame#	Time	L_IAS			L_IPS			R_IPS			R_IAS			L_FTC			L_FLE			L_FME			L_FAX			L_TTC			L_FAL			L_TAM			L_FCC			L_FM1			L_FM2			L_FM5			R_FTC			R_FLE			R_FME			R_FAX			R_TTC			R_FAL			R_TAM			R_FCC			R_FM1			R_FM2			R_FM5			CV7			TV10			SXS			SJN			L_SIA			L_SRS			L_SAA			L_SAE			L_HLE			L_HME			L_UOA			L_RSP			L_UHE			L_HM2			L_HM5			R_SIA			R_SRS			R_SAA			R_SAE			R_HLE			R_HME			R_UOA			R_RSP			R_UHE			R_HM2			R_HM5			
		X1	Y1	Z1	X2	Y2	Z2	X3	Y3	Z3	X4	Y4	Z4	X5	Y5	Z5	X6	Y6	Z6	X7	Y7	Z7	X8	Y8	Z8	X9	Y9	Z9	X10	Y10	Z10	X11	Y11	Z11	X12	Y12	Z12	X13	Y13	Z13	X14	Y14	Z14	X15	Y15	Z15	X16	Y16	Z16	X17	Y17	Z17	X18	Y18	Z18	X19	Y19	Z19	X20	Y20	Z20	X21	Y21	Z21	X22	Y22	Z22	X23	Y23	Z23	X24	Y24	Z24	X25	Y25	Z25	X26	Y26	Z26	X27	Y27	Z27	X28	Y28	Z28	X29	Y29	Z29	X30	Y30	Z30	X31	Y31	Z31	X32	Y32	Z32	X33	Y33	Z33	X34	Y34	Z34	X35	Y35	Z35	X36	Y36	Z36	X37	Y37	Z37	X38	Y38	Z38	X39	Y39	Z39	X40	Y40	Z40	X41	Y41	Z41	X42	Y42	Z42	X43	Y43	Z43	X44	Y44	Z44	X45	Y45	Z45	X46	Y46	Z46	X47	Y47	Z47	X48	Y48	Z48	X49	Y49	Z49	X50	Y50	Z50	X51	Y51	Z51	X52	Y52	Z52	

184	1.83	404.7148742675784	858.5396118164067	491.4810180664065	305.0699768066407	902.1571655273442	326.0762634277345	215.4200134277345	899.9784545898442	333.0694885253907	165.3641662597657	875.438598632813	520.6762695312502	449.4686279296877	780.7055664062505	395.2866821289065	405.3127746582034	440.9838867187502	307.2393798828126	296.5314025878907	423.2275695800784	343.1509399414064	405.1197509765627	389.9377136230471	266.9237365722657	365.3773193359376	348.1362915039064	319.7676696777345	350.2755126953126	99.97919464111334	123.1582717895508	267.1812438964845	102.2039871215821	155.9617309570313	299.5738525390626	76.03497314453128	74.98784637451175	287.7673339843751	29.53713417053224	247.7180480957032	350.1651000976564	34.07715606689455	252.8128814697267	389.7661132812502	23.56303405761719	192.9374847412111	93.43402099609378	779.0051879882817	444.3596801757815	124.7663803100587	443.5313720703127	554.3938598632815	243.5286407470704	433.1565551757815	557.2270507812502	118.6896209716797	376.4776000976564	555.7247314453127	177.3517150878907	384.4639587402346	613.063903808594	157.3843078613282	65.08180999755862	598.0048828125002	241.6785736083986	87.88411712646487	628.1785888671877	214.0080413818361	22.81452560424805	559.3315429687502	231.5851135253907	33.46544647216798	742.8164062500002	171.250717163086	43.63577270507814	747.2189941406252	127.0137329101563	26.00484466552736	694.7881469726565	259.6897277832032	1366.357666015625	346.9524536132814	264.2842407226564	1130.937744140625	288.473602294922	286.8970947265626	1140.288818359375	515.7205200195315	276.0106201171876	1301.02294921875	472.6159667968752	356.4207458496095	1174.020751953125	274.098114013672	347.419158935547	1305.2314453125	295.180145263672	462.6174316406252	1304.164794921875	361.8633422851564	450.4353637695315	1314.934326171875	403.1121215820315	522.725280761719	1028.183715820313	371.5225830078126	445.6753845214846	996.8947143554692	350.4340209960939	494.5993347167971	995.7937622070317	339.3551025390626	489.8621520996096	800.4348144531255	471.5310668945315	553.6181640625002	796.2903442382817	421.6366271972659	499.2886352539065	719.9956665039065	504.3341979980471	555.821228027344	717.5278320312502	418.1533508300784	148.9038238525391	1171.300415039063	290.5964660644532	168.8016357421876	1297.690185546875	310.7276916503907	74.77667236328128	1287.46728515625	403.2580261230471	91.90312194824222	1290.720703125	450.8581237792971	23.15158462524415	988.436157226563	410.603698730469	99.10180664062506	973.5163574218755	382.4084472656251	53.55489349365237	965.1782226562505	379.8261108398439	60.07826232910159	786.8284301757817	516.7583007812502	-3.268611431121828	780.767700195313	465.3424987792971	44.54117965698244	698.5158691406252	551.0051879882815	-1.92292356491089	701.7111816406252	458.7548522949221	
185	1.84	402.6878967285159	859.5270996093755	496.924499511719	302.7597656250001	903.1438598632817	331.6335754394532	213.066131591797	900.8493652343755	338.7537841796876	163.3847808837891	876.253540039063	526.3894042968752	447.3981933593752	781.8889160156255	400.5052490234377	405.1015625000002	442.3391113281252	311.9339599609376	296.3372497558595	423.897155761719	348.030731201172	405.0008850097659	391.5541687011721	271.1977844238282	365.6264648437501	349.166717529297	323.8644409179689	351.1845703125001	102.7471542358399	124.8662948608399	268.1919860839845	104.4936141967774	157.7823181152344	300.384735107422	79.58536529541018	76.46594238281253	287.9872131347657	29.72156524658205	247.9030914306642	350.3642578125001	34.05964660644533	253.1341857910157	389.9238586425784	23.9924430847168	193.4897766113282	91.51258087158206	779.6741333007817	450.1187438964846	124.2333526611329	443.7989501953127	558.9367675781252	242.963104248047	433.8483886718752	561.6031494140627	118.357032775879	376.6843566894532	559.799743652344	177.1392669677735	384.320495605469	617.0713500976565	157.8105773925782	65.10718536376956	598.7087402343752	242.3561553955079	87.3866882324219	628.9197998046877	214.1060028076173	22.91079902648926	559.4956665039065	232.7778625488282	31.7602005004883	743.0755615234377	172.0849151611329	42.69478988647462	748.053161621094	127.0046081542969	26.16341400146486	694.9898681640627	257.9048461914064	1367.20751953125	352.1748657226564	262.150604248047	1131.708862304688	293.940155029297	284.8919982910157	1141.252197265625	521.1159667968752	274.1541137695314	1301.970825195313	477.9145507812502	354.487762451172	1174.737182617188	279.5588684082032	345.6314392089845	1305.965942382813	300.5316162109376	460.7960510253909	1304.871948242188	367.3670043945314	448.5321350097659	1315.627807617188	408.552429199219	520.8764648437502	1028.928588867188	377.095672607422	443.8538513183596	997.6584472656255	355.9160766601564	492.7718811035159	996.5317993164067	344.9092712402345	487.8894042968752	801.241088867188	477.1553955078127	551.6865844726565	797.0556640625005	427.3308715820315	497.208435058594	720.822448730469	510.0686035156252	553.8311157226565	718.2734985351565	423.8750000000002	146.8439331054688	1172.211669921875	296.0751342773439	166.9330596923829	1298.69384765625	315.7750854492189	72.89118194580081	1288.659545898438	408.6513977050784	89.99002075195315	1291.893188476563	456.279724121094	21.09538269042969	989.5712280273442	416.5006408691409	97.01219940185553	974.597778320313	388.214050292969	51.4531173706055	966.2503051757817	385.7138977050784	58.10486984252933	788.198608398438	522.9608154296877	-5.275853157043459	782.0539550781255	471.5975646972659	42.57846450805665	699.932556152344	557.4101562500002	-3.992202043533327	702.9805297851565	465.2209472656252	
186	1.85	400.7078247070315	860.540161132813	502.3332214355471	300.4169921875001	904.138305664063	337.1918029785157	210.6810913085939	901.7286987304692	344.4639587402345	161.4542694091797	877.021850585938	532.1613769531252	445.2974853515627	783.080932617188	405.7170410156252	404.921081542969	443.6665344238284	316.7542724609376	296.1847229003907	424.5057678222659	353.0816955566407	404.8830566406252	393.1475524902346	275.593963623047	365.9302368164064	350.1670227050782	328.1129455566407	352.0099182128907	105.5770263671876	126.7060623168946	269.1376037597657	106.7975387573243	159.7829895019532	301.0616149902345	83.19374847412112	78.11685180664065	288.1457824707032	29.86421203613283	248.1554260253907	350.5256652832032	34.05411911010744	253.4851989746095	390.0256347656252	24.5169086456299	194.0823974609376	89.61771392822268	780.3322143554692	455.9355773925784	123.6770095825196	444.0130004882815	563.299987792969	242.3944854736329	434.4600830078127	565.7664794921877	117.9992904663087	376.8349914550782	563.6634521484377	176.8898925781251	384.138366699219	620.8877563476565	158.2281036376954	65.13065338134768	599.3328247070315	243.0424041748048	86.91395568847659	629.5901489257815	214.2144317626954	22.9651107788086	559.6429443359377	233.929412841797	30.26669883728029	743.3616333007815	172.8390502929688	41.90971755981447	748.8093872070315	127.0271835327149	26.29235649108888	695.1486816406252	256.1024169921876	1368.06103515625	357.3945922851564	259.9525146484376	1132.480102539063	299.3986816406251	282.8553771972657	1142.204467773438	526.5039062500002	272.2678527832032	1302.90771484375	483.2030944824221	352.4920654296876	1175.431518554688	285.0173645019532	343.8214416503907	1306.697509765625	305.8748168945314	458.9554748535159	1305.54833984375	372.8793334960939	446.5980529785159	1316.288452148438	413.9995117187502	519.0373535156252	1029.650756835938	382.7056579589845	442.0618896484377	998.381225585938	361.3986206054689	490.9777526855471	997.2315063476567	350.4927978515626	485.896179199219	802.0537109375005	482.8595275878909	549.754577636719	797.811889648438	433.1571350097659	495.0974121093752	721.6668090820315	515.9079589843752	551.8687133789065	719.0156250000002	429.7721862792971	144.7518310546876	1173.124755859375	301.5332641601564	165.0458221435547	1299.669555664063	320.9068298339845	70.98213958740237	1289.847778320313	414.0159606933596	88.04333496093753	1293.102172851563	461.639587402344	18.957914352417	990.7131958007817	422.2998657226565	94.82947540283206	975.6646118164067	393.9432067871096	49.2590255737305	967.2988891601567	391.5293884277346	56.07487487792972	789.640991210938	529.230163574219	-7.325093269348148	783.349487304688	477.9034729003909	40.53984451293947	701.4724731445315	563.9749755859377	-6.070073127746586	704.253112792969	471.8146972656252	
187	1.86	398.7755126953127	861.5685424804692	507.7064208984377	298.0700073242189	905.1357421875005	342.7425537109376	208.2932739257814	902.6199340820317	350.1871337890626	159.5779571533204	877.7504272460942	537.976501464844	443.1824645996096	784.2676391601567	410.9191589355471	404.7695922851565	444.9585876464846	321.6906738281251	296.081512451172	425.0455627441409	358.300506591797	404.7654418945315	394.7105102539065	280.1026000976564	366.2912597656251	351.1297912597657	332.5066528320314	352.7425537109376	108.4541702270508	128.6778717041016	270.0102844238282	109.1013259887696	161.9677276611329	301.5936279296876	86.84212493896487	79.94647216796878	288.2382812500001	29.96097373962404	248.4768981933595	350.6462402343751	34.05910110473634	253.8659057617189	390.0691528320315	25.13403320312501	194.7154235839845	87.75545501708987	780.987670898438	461.7923889160159	123.0708389282227	444.1805419921877	567.4747314453127	241.7931976318361	434.9922790527346	569.7024536132815	117.5844879150391	376.9375915527345	567.3139648437502	176.5710144042969	383.9259033203126	624.5014648437502	158.603012084961	65.1479187011719	599.8814086914065	243.6965789794923	86.4825134277344	630.1929931640627	214.3182830810548	22.99580383300782	559.773620605469	234.9853515625001	28.98860931396486	743.675476074219	173.4740142822266	41.2566604614258	749.485534667969	127.0550613403321	26.36453437805177	695.2703857421877	254.2800445556642	1368.915893554688	362.6038818359376	257.702850341797	1133.247924804688	304.8434143066407	280.7929077148439	1143.146850585938	531.877868652344	270.3558044433595	1303.834106445313	488.4736328125002	350.4364318847657	1176.105712890625	290.4615478515626	341.9828186035157	1307.423950195313	311.1967773437501	457.0925292968752	1306.196044921875	378.3761596679689	444.6354064941409	1316.921752929688	419.4307861328127	517.1965332031252	1030.3525390625	388.3404846191409	440.2808532714846	999.0639038085942	366.8900756835939	489.1977844238284	997.8938598632817	356.1009521484376	483.8933715820315	802.877075195313	488.6459960937502	547.823425292969	798.5639648437505	439.1038818359377	492.9757995605471	722.5300903320315	521.8494873046877	549.936706542969	719.7598876953127	435.8315429687502	142.6284637451172	1174.034423828125	306.9719238281251	163.1375732421876	1300.6064453125	326.1336975097657	69.05110168457034	1291.031494140625	419.3526916503909	86.06731414794925	1294.35791015625	466.9288635253909	16.73913002014161	991.860473632813	428.0167541503909	92.55462646484378	976.7191772460942	399.5989074707034	46.97311019897462	968.3279418945317	397.2783813476565	53.99682235717776	791.1478881835942	535.5630493164065	-9.417901039123539	784.6538085937505	484.2645568847659	38.43804931640626	703.125183105469	570.6829833984377	-8.159277915954593	705.5308837890627	478.5254821777346	
